<svg xmlns="http://www.w3.org/2000/svg" viewBox="0 0 64 64" role="img" aria-label="WhatsApp">
  <defs>
    <linearGradient id="whatsappGrad" x1="10" y1="10" x2="54" y2="54" gradientUnits="userSpaceOnUse">
      <stop offset="0" stop-color="#2de36e" />
      <stop offset="1" stop-color="#16a34a" />
    </linearGradient>
  </defs>
  <path
    fill="url(#whatsappGrad)"
    d="M32 6c-14.9 0-27 10.5-27 23.5 0 6.7 3.1 12.8 8.2 17.2L11 58l12.1-6.2c2.8.8 5.7 1.2 8.9 1.2 14.9 0 27-10.5 27-23.5C59 16.5 46.9 6 32 6Z"
  />
  <path
    fill="#f1f5f9"
    d="M24.3 18.2c1.1-1 2.4-.5 2.9.7l1.6 3.8a2 2 0 0 1-.5 2.2l-1.5 1.4a13.5 13.5 0 0 0 7.2 7.2l1.4-1.5a2 2 0 0 1 2.2-.5l3.8 1.6c1.2.5 1.7 1.8.7 2.9l-2.1 2.3c-.6.6-1.4.9-2.2.8-10.7-1-19.1-9.4-20.1-20.1-.1-.8.2-1.6.8-2.2l2.3-2.1Z"
  />
  <path
    fill="#16a34a"
    d="M24.7 18.7c.7-.6 1.5-.3 1.9.6l1.6 3.8c.2.5.1 1.1-.3 1.5l-1.5 1.4c-.3.3-.4.7-.3 1.1 1.3 3.6 4.2 6.5 7.8 7.8.4.1.8 0 1.1-.3l1.4-1.5c.4-.4 1-.5 1.5-.3l3.8 1.6c.9.4 1.2 1.2.6 1.9l-2.1 2.3c-.5.5-1.2.7-1.9.6-10.2-1-18.3-9-19.3-19.3-.1-.7.1-1.4.6-1.9l2.3-2.1Z"
    opacity=".15"
  />
</svg>
